<?xml version="1.0" standalone="no"?>
<!DOCTYPE svg PUBLIC "-//W3C//DTD SVG 20010904//EN"
 "http://www.w3.org/TR/2001/REC-SVG-20010904/DTD/svg10.dtd">
<svg version="1.0" xmlns="http://www.w3.org/2000/svg"
 width="1043.000000pt" height="1043.000000pt" viewBox="0 0 1043.000000 1043.000000"
 preserveAspectRatio="xMidYMid meet">
<metadata>
Created by potrace 1.11, written by Peter Selinger 2001-2013
</metadata>
<g transform="translate(0.000000,1043.000000) scale(0.100000,-0.100000)"
fill="#000000" stroke="none">
<path d="M1280 5295 l0 -465 250 0 250 0 0 50 0 50 -175 0 -175 0 0 170 0 170
160 0 160 0 0 45 0 45 -160 0 -160 0 0 155 0 155 170 0 170 0 0 45 0 45 -245
0 -245 0 0 -465z"/>
<path d="M4490 5690 l0 -70 75 0 75 0 0 70 0 70 -75 0 -75 0 0 -70z"/>
<path d="M5500 5295 l0 -465 75 0 75 0 2 222 3 221 154 -221 154 -222 89 0
c69 0 87 3 82 13 -4 6 -84 118 -178 247 -93 129 -169 240 -169 245 0 6 70 102
156 213 87 112 157 205 157 207 0 3 -33 5 -73 5 l-73 0 -150 -202 -149 -202
-3 202 -2 202 -75 0 -75 0 0 -465z"/>
<path d="M7763 5663 l-63 -37 0 -78 0 -78 -50 0 -50 0 0 -35 0 -35 50 0 50 0
0 -236 c0 -195 3 -242 16 -270 27 -57 107 -83 237 -76 42 2 53 17 43 58 -6 23
-10 25 -40 20 -41 -8 -93 10 -109 38 -8 14 -13 94 -15 244 l-4 222 91 0 91 0
0 35 0 34 -87 3 -88 3 -5 112 -5 112 -62 -36z"/>
<path d="M2238 5481 c-52 -17 -91 -47 -129 -100 l-39 -54 0 71 0 72 -70 0 -70
0 0 -102 c0 -57 3 -201 7 -320 l6 -218 64 0 63 0 0 148 c0 208 29 316 100 376
22 18 43 26 71 26 34 0 42 -5 59 -32 18 -31 20 -51 20 -275 l0 -243 70 0 70 0
0 263 c0 292 -6 321 -68 366 -35 24 -112 35 -154 22z"/>
<path d="M2808 5477 c-65 -19 -114 -59 -145 -120 -46 -90 -44 -286 4 -381 29
-56 93 -115 149 -136 63 -23 202 -27 269 -6 35 10 40 16 43 45 3 29 1 33 -15
26 -10 -4 -44 -9 -75 -12 -145 -14 -244 92 -272 290 l-5 37 196 0 195 0 -7 53
c-13 98 -47 152 -117 188 -48 25 -159 33 -220 16z m143 -63 c31 -15 59 -66 59
-104 0 -19 -6 -20 -120 -20 -72 0 -120 4 -120 10 0 5 7 28 17 51 28 70 99 97
164 63z"/>
<path d="M3618 5480 c-54 -16 -98 -52 -133 -108 l-35 -56 0 77 0 77 -70 0 -70
0 0 -320 0 -320 69 0 69 0 4 193 c3 171 5 196 24 232 25 47 89 85 146 85 l38
0 0 75 c0 41 -3 75 -7 74 -5 0 -20 -4 -35 -9z"/>
<path d="M3897 5476 c-54 -15 -100 -54 -127 -107 -44 -85 -51 -277 -14 -383
52 -151 244 -208 351 -104 l33 32 0 -80 c-1 -97 -24 -169 -63 -198 -47 -34
-145 -29 -225 12 -34 17 -65 32 -67 32 -3 0 -5 -29 -5 -65 l0 -64 38 -8 c20
-4 87 -8 147 -8 94 0 117 3 160 23 90 41 127 93 145 203 5 35 10 209 10 387
l0 322 -70 0 -70 0 0 -47 0 -48 -21 32 c-43 67 -131 95 -222 69z m178 -109
c44 -44 59 -101 59 -227 -1 -84 -5 -114 -21 -152 -46 -103 -159 -103 -206 0
-30 65 -31 252 -3 325 34 88 112 113 171 54z"/>
<path d="M5002 5480 c-88 -19 -147 -74 -177 -168 -25 -76 -17 -247 14 -317 30
-69 94 -131 159 -155 61 -23 201 -26 267 -6 35 10 40 16 43 45 3 31 2 33 -20
27 -13 -4 -47 -10 -76 -13 -137 -14 -240 96 -266 285 l-6 42 196 0 196 0 -7
53 c-13 97 -47 152 -116 188 -44 22 -147 31 -207 19z m127 -65 c30 -15 61 -68
61 -104 0 -20 -5 -21 -120 -21 -72 0 -120 4 -120 10 0 5 7 28 17 51 27 69 99
97 162 64z"/>
<path d="M6393 5480 c-23 -5 -55 -16 -71 -24 -37 -19 -90 -80 -109 -124 -21
-51 -32 -172 -22 -256 19 -171 108 -255 270 -256 186 0 277 95 287 300 5 112
-13 200 -56 263 -51 77 -186 121 -299 97z m141 -80 c51 -45 70 -125 64 -277
-5 -145 -28 -206 -91 -237 -34 -16 -42 -17 -75 -4 -25 9 -44 26 -59 54 -45 81
-54 270 -18 391 29 99 111 132 179 73z"/>
<path d="M7220 5479 c-46 -14 -94 -52 -131 -102 l-29 -40 0 66 0 67 -70 0 -70
0 0 -320 0 -320 70 0 70 0 0 169 c0 140 3 180 20 233 42 138 151 197 207 112
16 -25 18 -57 21 -271 l4 -243 64 0 65 0 -3 279 c-3 264 -4 281 -24 307 -46
62 -119 85 -194 63z"/>
<path d="M8312 5480 c-149 -31 -221 -154 -209 -361 6 -117 31 -182 92 -238 51
-46 103 -64 196 -63 127 0 218 64 255 180 24 73 24 224 1 303 -20 68 -81 140
-135 162 -51 20 -146 28 -200 17z m144 -81 c49 -46 76 -214 55 -347 -19 -124
-55 -171 -127 -172 -89 0 -125 66 -132 240 -6 151 12 230 64 279 32 29 41 33
76 28 22 -3 51 -16 64 -28z"/>
<path d="M9126 5475 c-47 -16 -100 -66 -129 -120 l-22 -40 -3 78 -3 77 -63 0
-63 0 -6 -217 c-4 -120 -7 -264 -7 -320 l0 -103 70 0 70 0 0 163 c1 89 5 182
9 206 16 79 71 131 150 139 l51 5 0 73 c0 41 -3 74 -7 74 -5 -1 -25 -7 -47
-15z"/>
<path d="M4500 5150 l0 -320 65 0 65 0 0 320 0 320 -65 0 -65 0 0 -320z"/>
</g>
</svg>
